<svg xmlns="http://www.w3.org/2000/svg">
  <defs>
    <symbol id="icon-group" viewBox="0 0 24 24">
      <path fill-rule="evenodd" d="M12 6a3.5 3.5 0 1 0 0 7 3.5 3.5 0 0 0 0-7Zm-1.5 8a4 4 0 0 0-4 4 2 2 0 0 0 2 2h7a2 2 0 0 0 2-2 4 4 0 0 0-4-4h-3Zm6.82-3.096a5.51 5.51 0 0 0-2.797-6.293 3.5 3.5 0 1 1 2.796 6.292ZM19.5 18h.5a2 2 0 0 0 2-2 4 4 0 0 0-4-4h-1.1a5.503 5.503 0 0 1-.471.762A5.998 5.998 0 0 1 19.5 18ZM4 7.5a3.5 3.5 0 0 1 5.477-2.889 5.5 5.5 0 0 0-2.796 6.293A3.501 3.501 0 0 1 4 7.5ZM7.1 12H6a4 4 0 0 0-4 4 2 2 0 0 0 2 2h.5a5.998 5.998 0 0 1 3.071-5.238A5.505 5.505 0 0 1 7.1 12Z" clip-rule="evenodd"/>
    </symbol>

     <symbol id="icon-add" viewBox="0 0 24 24">
      <g>
        <path d="M18,21H6a3,3,0,0,1-3-3V6A3,3,0,0,1,6,3H18a3,3,0,0,1,3,3V18A3,3,0,0,1,18,21ZM6,5A1,1,0,0,0,5,6V18a1,1,0,0,0,1,1H18a1,1,0,0,0,1-1V6a1,1,0,0,0-1-1Z"></path>
        <path d="M15,11H13V9a1,1,0,0,0-2,0v2H9a1,1,0,0,0,0,2h2v2a1,1,0,0,0,2,0V13h2a1,1,0,0,0,0-2Z"></path>
      </g>
    </symbol>

  </defs>
</svg>
