<svg xmlns="http://www.w3.org/2000/svg">
  <defs>
    <symbol id="icon-group" viewBox="0 0 24 24">
      <path fill-rule="evenodd" d="M12 6a3.5 3.5 0 1 0 0 7 3.5 3.5 0 0 0 0-7Zm-1.5 8a4 4 0 0 0-4 4 2 2 0 0 0 2 2h7a2 2 0 0 0 2-2 4 4 0 0 0-4-4h-3Zm6.82-3.096a5.51 5.51 0 0 0-2.797-6.293 3.5 3.5 0 1 1 2.796 6.292ZM19.5 18h.5a2 2 0 0 0 2-2 4 4 0 0 0-4-4h-1.1a5.503 5.503 0 0 1-.471.762A5.998 5.998 0 0 1 19.5 18ZM4 7.5a3.5 3.5 0 0 1 5.477-2.889 5.5 5.5 0 0 0-2.796 6.293A3.501 3.501 0 0 1 4 7.5ZM7.1 12H6a4 4 0 0 0-4 4 2 2 0 0 0 2 2h.5a5.998 5.998 0 0 1 3.071-5.238A5.505 5.505 0 0 1 7.1 12Z" clip-rule="evenodd"/>
    </symbol>

     <symbol id="icon-add" viewBox="0 0 24 24">
      <g>
        <path d="M18,21H6a3,3,0,0,1-3-3V6A3,3,0,0,1,6,3H18a3,3,0,0,1,3,3V18A3,3,0,0,1,18,21ZM6,5A1,1,0,0,0,5,6V18a1,1,0,0,0,1,1H18a1,1,0,0,0,1-1V6a1,1,0,0,0-1-1Z"></path>
        <path d="M15,11H13V9a1,1,0,0,0-2,0v2H9a1,1,0,0,0,0,2h2v2a1,1,0,0,0,2,0V13h2a1,1,0,0,0,0-2Z"></path>
      </g>
    </symbol>

    <symbol id="icon-signout" viewBox="-5.0 -10.0 110.0 135.0">
      <g>
        <path d="m15.625 93.75h34.375c5.168 0 9.375-4.207 9.375-9.375v-21.875c0-1.7266-1.3984-3.125-3.125-3.125s-3.125 1.3984-3.125 3.125v21.875c0 1.7227-1.4023 3.125-3.125 3.125h-34.375c-1.7227 0-3.125-1.4023-3.125-3.125v-68.75c0-1.7227 1.4023-3.125 3.125-3.125h34.375c1.7227 0 3.125 1.4023 3.125 3.125v21.875c0 1.7266 1.3984 3.125 3.125 3.125s3.125-1.3984 3.125-3.125v-21.875c0-5.168-4.207-9.375-9.375-9.375h-34.375c-5.168 0-9.375 4.207-9.375 9.375v68.75c0 5.168 4.207 9.375 9.375 9.375z"/>
        <path d="m71.035 24.43c-1.1797-1.2617-3.1484-1.3359-4.418-0.15234-1.2578 1.1797-1.3281 3.1562-0.15234 4.4141l16.965 18.184h-61.555c-1.7266 0-3.125 1.3984-3.125 3.125s1.3984 3.125 3.125 3.125h61.555l-16.969 18.18c-1.1758 1.2578-1.1055 3.2383 0.15234 4.4141 0.60938 0.56641 1.375 0.84375 2.1367 0.84375 0.83594 0 1.668-0.33203 2.2852-0.99219l21.875-23.438c1.1172-1.1992 1.1172-3.0625 0-4.2617z"/>
      </g>
    </symbol>

  </defs>
</svg>
